<svg width="13" height="13" viewBox="0 0 13 13" fill="none" xmlns="http://www.w3.org/2000/svg">
<path d="M10.5904 0.884684L9.88455 1.62774L9.17865 0.884684C9.11834 0.82109 9.0467 0.770638 8.96785 0.736215C8.889 0.701791 8.80447 0.684073 8.7191 0.684073C8.63373 0.684073 8.5492 0.701791 8.47035 0.736215C8.39149 0.770638 8.31986 0.82109 8.25955 0.884684L7.4477 1.73926C6.8329 1.49522 6.18141 1.36961 5.52435 1.36842C2.47845 1.36842 0 3.97732 0 7.18421C0 10.3911 2.47845 13 5.52435 13C8.57025 13 11.0493 10.3911 11.0493 7.18421C11.049 6.56702 10.9544 5.95391 10.7692 5.36832L11.6441 4.44737C11.7045 4.38388 11.7524 4.30848 11.7851 4.22547C11.8178 4.14247 11.8347 4.05349 11.8347 3.96363C11.8347 3.87377 11.8178 3.78479 11.7851 3.70179C11.7524 3.61878 11.7045 3.54338 11.6441 3.4799L10.8036 2.59521L11.5121 1.84942C11.661 1.69274 12.0614 1.36842 12.35 1.36842H13V0H12.35C11.44 0 10.6704 0.798474 10.5904 0.884684ZM5.52435 4.78947C4.9166 4.78947 4.3459 5.03853 3.9156 5.49079C3.70389 5.71278 3.53607 5.97673 3.42182 6.26739C3.30758 6.55805 3.24918 6.86966 3.25 7.18421H1.95C1.95 6.17979 2.32115 5.2349 2.99585 4.524C3.32706 4.17325 3.72109 3.89516 4.15511 3.70584C4.58914 3.51652 5.05453 3.41972 5.52435 3.42105V4.78947Z" fill="#E0FBFC"/>
</svg>
